<svg height="16" viewBox="0 0 25 16" width="25" xmlns="http://www.w3.org/2000/svg"><g fill="none" transform="translate(-1 -1)"><path d="m0 0h27.184138v17.97931h-27.184138z" fill="#fff" opacity="0"/><path d="m10.007586 3.132414h7.171034v11.712414h-7.171034z" fill="#ff5f00"/><path d="m10.7462069 8.98965517c-.0018006-2.28517211 1.0472294-4.44426647 2.8448276-5.85517241-3.0538365-2.39998929-7.43926816-2.05041009-10.07433149.80306272s-2.63506333 7.25281552 0 10.10628832 7.02049499 3.203052 10.07433149.8030628c-1.7981703-1.411354-2.8472643-3.5713433-2.8448276-5.85724143z" fill="#eb001b"/><g fill="#f79e1b"><path d="m25.0209195 14.3273563v-.8380952h.1685824v-.173399h-.401226v.173399h.1584674v.8380952zm.7788506 0v-1.0114942h-.1213793l-.1416092.7224959-.1416092-.7224959h-.1213793v1.0114942h.0876628v-.7658456l.1314943.6574712h.0910345l.1314942-.6574712v.7658456z"/><path d="m25.6427586 8.98965517c0 2.85173383-1.6283957 5.45310003-4.1934299 6.69928843-2.5650343 1.2461883-5.6164481.918414-7.8582942-.844116 1.7968138-1.4121038 2.8459227-3.5709111 2.8459227-5.85620691 0-2.28529583-1.0491089-4.44410314-2.8459227-5.8562069 2.2418461-1.76252996 5.2932599-2.09030429 7.8582942-.84411597 2.5650342 1.24618832 4.1934299 3.84755451 4.1934299 6.69928839z"/></g></g></svg>