<svg height="16" viewBox="0 0 27 16" width="27" xmlns="http://www.w3.org/2000/svg"><g fill="none" fill-rule="evenodd" stroke="#212121" stroke-width=".3"><path d="m26.85 4.613v-2.49c0-1.085-.904-1.973-2.01-1.973h-22.68c-1.106 0-2.01.888-2.01 1.972v2.491z" fill="#e3e4e6" fill-rule="nonzero"/><path d="m.15 4.15h26.7v2.542h-26.7z" fill="#a7a5a6"/><path d="m.15 6.15v7.531c0 1.084.904 1.972 2.01 1.972h22.68c1.106 0 2.01-.888 2.01-1.972v-7.531zm14.779 6.366h-10.689l-.15-.15v-2.652l.15-.15h10.69l.15.15v2.652h-.15v-.15.3zm7.83 0h-3.579l-.15-.15v-2.652l.15-.15h3.578l.15.15v2.652l-.15.15z" fill="#e3e4e6" fill-rule="nonzero"/></g></svg>